<svg viewBox="0 0 57 51" fill="none" xmlns="http://www.w3.org/2000/svg">
<path d="M57 25.5058C57 21.7121 52.2713 18.1167 45.0214 15.8872C46.6945 8.46304 45.9509 2.55642 42.6745 0.665369C41.9193 0.22179 41.0363 0.011673 40.072 0.011673V2.61479C40.6064 2.61479 41.0363 2.71984 41.3965 2.91829C42.9766 3.82879 43.6621 7.29572 43.1276 11.7549C42.9998 12.8521 42.7907 14.0078 42.5351 15.1868C40.2578 14.6265 37.7715 14.1946 35.1574 13.9144C33.5889 11.7549 31.9623 9.79377 30.3241 8.07782C34.1117 4.54086 37.6669 2.60311 40.0836 2.60311V0C36.8885 0 32.7059 2.28794 28.4768 6.25681C24.2477 2.31128 20.065 0.0466928 16.87 0.0466928V2.6498C19.275 2.6498 22.8418 4.57588 26.6294 8.08949C25.0029 9.80545 23.3763 11.7549 21.831 13.9144C19.2053 14.1946 16.7189 14.6265 14.4417 15.1984C14.1745 14.0311 13.977 12.8988 13.8375 11.8132C13.2915 7.35408 13.9653 3.88716 15.5338 2.96498C15.8824 2.75486 16.3355 2.66148 16.87 2.66148V0.0583658C15.894 0.0583658 15.011 0.268482 14.2442 0.712062C10.9794 2.60311 10.2475 8.49805 11.9321 15.8988C4.70546 18.1401 0 21.7237 0 25.5058C0 29.2996 4.7287 32.8949 11.9786 35.1245C10.3055 42.5486 11.0491 48.4552 14.3255 50.3463C15.0807 50.7899 15.9637 51 16.9397 51C20.1347 51 24.3174 48.7121 28.5465 44.7432C32.7756 48.6887 36.9582 50.9533 40.1533 50.9533C41.1292 50.9533 42.0122 50.7432 42.779 50.2996C46.0438 48.4086 46.7758 42.5136 45.0911 35.1128C52.2945 32.8833 57 29.2879 57 25.5058ZM41.8728 17.7198C41.4429 19.2257 40.9085 20.7782 40.3043 22.3307C39.828 21.3969 39.3284 20.463 38.7823 19.5292C38.2479 18.5953 37.6786 17.6848 37.1093 16.7977C38.7591 17.0428 40.3508 17.3463 41.8728 17.7198ZM36.5516 30.1517C35.6453 31.7276 34.7159 33.2218 33.7515 34.6109C32.0204 34.7626 30.266 34.8444 28.5 34.8444C26.7456 34.8444 24.9912 34.7626 23.2717 34.6226C22.3074 33.2335 21.3663 31.751 20.46 30.1868C19.577 28.6576 18.7754 27.1051 18.0434 25.5409C18.7638 23.9767 19.5771 22.4124 20.4484 20.8833C21.3547 19.3074 22.2841 17.8132 23.2485 16.4241C24.9796 16.2724 26.734 16.1907 28.5 16.1907C30.2544 16.1907 32.0088 16.2724 33.7283 16.4125C34.6926 17.8016 35.6337 19.284 36.54 20.8482C37.423 22.3774 38.2246 23.93 38.9566 25.4942C38.2246 27.0584 37.423 28.6226 36.5516 30.1517ZM40.3043 28.6342C40.9317 30.1984 41.4662 31.7626 41.9077 33.2802C40.3857 33.6537 38.7823 33.9689 37.1209 34.214C37.6902 33.3152 38.2595 32.393 38.7939 31.4475C39.3284 30.5136 39.828 29.5681 40.3043 28.6342ZM28.5232 41.0895C27.4427 39.9689 26.3622 38.7198 25.2933 37.3541C26.339 37.4008 27.4079 37.4358 28.4884 37.4358C29.5805 37.4358 30.661 37.4124 31.7183 37.3541C30.6726 38.7198 29.5921 39.9689 28.5232 41.0895ZM19.8791 34.214C18.2293 33.9689 16.6376 33.6654 15.1156 33.2918C15.5455 31.786 16.0799 30.2335 16.6841 28.6809C17.1604 29.6148 17.66 30.5486 18.2061 31.4825C18.7521 32.4163 19.3098 33.3268 19.8791 34.214ZM28.4651 9.92218C29.5457 11.0428 30.6262 12.2918 31.6951 13.6576C30.6494 13.6109 29.5805 13.5759 28.5 13.5759C27.4079 13.5759 26.3274 13.5992 25.2701 13.6576C26.3157 12.2918 27.3963 11.0428 28.4651 9.92218ZM19.8675 16.7977C19.2982 17.6965 18.7289 18.6187 18.1945 19.5642C17.66 20.4981 17.1604 21.4319 16.6841 22.3658C16.0567 20.8016 15.5222 19.2374 15.0807 17.7198C16.6027 17.358 18.2061 17.0428 19.8675 16.7977ZM9.35284 31.4125C5.23991 29.6498 2.57929 27.3385 2.57929 25.5058C2.57929 23.6732 5.23991 21.3502 9.35284 19.5992C10.352 19.1673 11.4441 18.7821 12.5711 18.4202C13.2334 20.7082 14.1048 23.0895 15.1853 25.5292C14.1164 27.9572 13.2566 30.3268 12.606 32.6031C11.4558 32.2412 10.3636 31.8444 9.35284 31.4125ZM15.6035 48.0934C14.0234 47.1829 13.338 43.716 13.8724 39.2568C14.0002 38.1595 14.2093 37.0039 14.4649 35.8249C16.7422 36.3852 19.2285 36.8171 21.8426 37.0973C23.4111 39.2568 25.0377 41.2179 26.6759 42.9338C22.8883 46.4708 19.3331 48.4086 16.9164 48.4086C16.3936 48.3969 15.9521 48.2918 15.6035 48.0934ZM43.1625 39.1984C43.7085 43.6576 43.0346 47.1245 41.4662 48.0467C41.1176 48.2568 40.6645 48.3502 40.13 48.3502C37.725 48.3502 34.1582 46.4241 30.3706 42.9105C31.9972 41.1945 33.6237 39.2451 35.169 37.0856C37.7947 36.8054 40.2811 36.3735 42.5583 35.8016C42.8255 36.9805 43.0347 38.1128 43.1625 39.1984ZM47.6356 31.4125C46.6364 31.8444 45.5442 32.2296 44.4172 32.5914C43.755 30.3035 42.8836 27.9222 41.8031 25.4825C42.872 23.0545 43.7318 20.6848 44.3824 18.4086C45.5326 18.7704 46.6247 19.1673 47.6472 19.5992C51.7601 21.3619 54.4207 23.6732 54.4207 25.5058C54.4091 27.3385 51.7485 29.6615 47.6356 31.4125Z" fill="#61DAFB"/>
<path d="M28.4884 30.8405C31.4208 30.8405 33.798 28.4521 33.798 25.5058C33.798 22.5596 31.4208 20.1712 28.4884 20.1712C25.556 20.1712 23.1788 22.5596 23.1788 25.5058C23.1788 28.4521 25.556 30.8405 28.4884 30.8405Z" fill="#61DAFB"/>
</svg>
